<?xml version="1.0" standalone="no"?><!DOCTYPE svg PUBLIC "-//W3C//DTD SVG 1.1//EN" "http://www.w3.org/Graphics/SVG/1.1/DTD/svg11.dtd"><svg t="1628660933980" class="icon" viewBox="0 0 1137 1024" version="1.1" xmlns="http://www.w3.org/2000/svg" p-id="4598" xmlns:xlink="http://www.w3.org/1999/xlink" width="222.0703125" height="200"><defs><style type="text/css"></style></defs><path d="M77.986565 272.693021h981.686458V147.948648a76.052543 76.052543 0 0 0-78.043448-73.947874H156.030012a76.052543 76.052543 0 0 0-78.043447 73.947874v124.801256z m0 89.306278V876.050784a76.052543 76.052543 0 0 0 78.043447 73.947873h825.599563a76.052543 76.052543 0 0 0 78.043448-73.947873V361.942416H77.986565zM156.030012 0.052901h825.599563A152.105087 152.105087 0 0 1 1137.659588 147.948648v728.102136a152.105087 152.105087 0 0 1-156.030013 147.895746H156.030012A152.105087 152.105087 0 0 1 0 876.050784V147.948648A152.105087 152.105087 0 0 1 156.030012 0.052901z m56.88298 678.898359a37.03082 37.03082 0 1 1 0-73.947873h169.056215a39.476788 39.476788 0 0 1 34.129787 18.771383l58.41882 97.781842 59.727128-98.009374 92.77614-153.925342a39.818086 39.818086 0 0 1 67.40633-0.511947l84.869405 135.893438h138.851353a37.03082 37.03082 0 1 1 0 73.947873H757.112456a39.818086 39.818086 0 0 1-33.617841-18.14567l-62.002448-99.317682-59.556479 98.805735-93.970682 154.039108a39.818086 39.818086 0 0 1-67.690746-0.284415l-80.830713-135.267725H213.140524z m632.197433-469.455229a36.973937 36.973937 0 1 1 39.021723-36.917053 37.99783 37.99783 0 0 1-39.021723 36.917053z m110.523629 0a36.973937 36.973937 0 1 1 39.021723-36.917053 37.99783 37.99783 0 0 1-39.021723 36.917053z m0 0" p-id="4599"></path></svg>